<svg width="1440" height="97" viewBox="0 0 1440 97" fill="none" xmlns="http://www.w3.org/2000/svg">
<path d="M-96 48.5C-84.5259 18.5 -73.0519 18.5 -61.5778 48.5C-50.1037 78.5 -38.6296 78.5 -27.1556 48.5C-15.6815 18.5 -4.20741 18.5 7.26666 48.5C18.7407 78.5 30.2148 78.5 41.6889 48.5C53.163 18.5 64.637 18.5 76.1111 48.5C87.5852 78.5 99.0593 78.5 110.533 48.5C122.007 18.5 133.481 18.5 144.956 48.5C156.43 78.5 167.904 78.5 179.378 48.5C190.852 18.5 202.326 18.5 213.8 48.5C225.274 78.5 236.748 78.5 248.222 48.5C259.696 18.5 271.17 18.5 282.644 48.5C294.119 78.5 305.593 78.5 317.067 48.5C328.541 18.5 340.015 18.5 351.489 48.5C362.963 78.5 374.437 78.5 385.911 48.5C397.385 18.5 408.859 18.5 420.333 48.5C431.807 78.5 443.281 78.5 454.756 48.5C466.23 18.5 477.704 18.5 489.178 48.5C500.652 78.5 512.126 78.5 523.6 48.5C535.074 18.5 546.548 18.5 558.022 48.5C569.496 78.5 580.97 78.5 592.444 48.5C603.918 18.5 615.393 18.5 626.867 48.5C638.341 78.5 649.815 78.5 661.289 48.5C672.763 18.5 684.237 18.5 695.711 48.5C707.185 78.5 718.659 78.5 730.133 48.5C741.607 18.5 753.081 18.5 764.556 48.5C776.03 78.5 787.504 78.5 798.978 48.5C810.452 18.5 821.926 18.5 833.4 48.5C844.874 78.5 856.348 78.5 867.822 48.5C879.296 18.5 890.77 18.5 902.244 48.5C913.718 78.5 925.193 78.5 936.667 48.5C948.141 18.5 959.615 18.5 971.089 48.5C982.563 78.5 994.037 78.5 1005.51 48.5C1016.99 18.5 1028.46 18.5 1039.93 48.5C1051.41 78.5 1062.88 78.5 1074.36 48.5C1085.83 18.5 1097.3 18.5 1108.78 48.5C1120.25 78.5 1131.73 78.5 1143.2 48.5C1154.67 18.5 1166.15 18.5 1177.62 48.5C1189.1 78.5 1200.57 78.5 1212.04 48.5C1223.52 18.5 1234.99 18.5 1246.47 48.5C1257.94 78.5 1269.41 78.5 1280.89 48.5C1292.36 18.5 1303.84 18.5 1315.31 48.5C1326.79 78.5 1338.26 78.5 1349.73 48.5C1361.21 18.5 1372.68 18.5 1384.16 48.5C1395.63 78.5 1407.1 78.5 1418.58 48.5C1430.05 18.5 1441.53 18.5 1453 48.5" stroke="#8A4E13" stroke-width="51"/>
</svg>
